<svg xmlns="http://www.w3.org/2000/svg" viewBox="0 0 376.48 455.88"><defs><style>.a{fill:#9f8f19;}.b{fill:#ffe455;}.c{fill:#3dd0f2;}</style></defs><path class="a" d="M376.48,188.24a7.5,7.5,0,0,1-7.5,7.5H327a7.5,7.5,0,0,1,0-15h42A7.5,7.5,0,0,1,376.48,188.24Z"/><path class="a" d="M348.52,104.37l-36.36,21a7.5,7.5,0,1,1-7.5-13l36.36-21a7.5,7.5,0,0,1,7.5,13Z"/><path class="a" d="M351.26,282.36A7.5,7.5,0,0,1,341,285.11l-36.36-21a7.5,7.5,0,1,1,7.5-13l36.36,21A7.5,7.5,0,0,1,351.26,282.36Z"/><path d="M270.37,103.62A117,117,0,0,0,95.1,257.74C120.82,291.52,135,332.89,135,374.24v45.24a36.44,36.44,0,0,0,36.4,36.4h33.85a36.44,36.44,0,0,0,36.4-36.4V374.24c0-41.8,13.69-82.15,39.87-116.68a117,117,0,0,0-11.14-153.94ZM205.24,440.88H171.39a21.42,21.42,0,0,1-18.74-11.08l64.57,7.4A21.26,21.26,0,0,1,205.24,440.88Zm21.4-21.4a21,21,0,0,1-.34,3.66L150,414.4v-6.07l76.65,8.78Zm0-17.47L150,393.23v-6.81h76.65Zm42.92-153.52C242,284.88,227.11,327.33,226.5,371.42H150c-.63-43.67-15.82-87.16-42.93-122.76A101,101,0,0,1,86.25,186c.49-54.93,45.58-100.26,100.51-101a102,102,0,0,1,82.8,163.54Z"/><path class="b" d="M259.84,114.3A101.32,101.32,0,0,0,186.76,85c-54.93.77-100,46.1-100.51,101A101,101,0,0,0,107,248.66c27.11,35.6,42.3,79.09,42.93,122.76H226.5c.61-44.09,15.47-86.54,43.06-122.93a102,102,0,0,0-9.72-134.19ZM106.65,206.82a7.49,7.49,0,0,1-7.41-6.39,91.27,91.27,0,0,1-1-14.34,7.5,7.5,0,0,1,15,.14,76.89,76.89,0,0,0,.82,12,7.5,7.5,0,0,1-6.31,8.53A8.41,8.41,0,0,1,106.65,206.82Zm53.9,104.94a7.59,7.59,0,0,1-2.34.38,7.5,7.5,0,0,1-7.12-5.16,222.81,222.81,0,0,0-34.51-65.59,91.08,91.08,0,0,1-8.41-13.28,7.5,7.5,0,0,1,13.33-6.89,75.43,75.43,0,0,0,7,11.08,238,238,0,0,1,36.82,70A7.51,7.51,0,0,1,160.55,311.76ZM271,222.47a89.85,89.85,0,0,1-11,18.77,7.5,7.5,0,1,1-11.95-9.06,75.31,75.31,0,0,0,9.14-15.65A7.5,7.5,0,1,1,271,222.47Zm-.57-20.31-.7,0a7.5,7.5,0,0,1-6.78-8.16c.21-2.32.32-4.69.32-7a75.07,75.07,0,0,0-75-75,7.5,7.5,0,0,1,0-15,90.09,90.09,0,0,1,90,90c0,2.81-.13,5.64-.38,8.41A7.5,7.5,0,0,1,270.39,202.16Z"/><path class="a" d="M285.1,35.46l-21,36.36a7.5,7.5,0,1,1-13-7.5l21-36.36a7.5,7.5,0,0,1,13,7.5Z"/><path d="M278.23,186.93c0,2.81-.13,5.64-.38,8.41a7.5,7.5,0,0,1-7.46,6.82l-.7,0a7.5,7.5,0,0,1-6.78-8.16c.21-2.32.32-4.69.32-7a75.07,75.07,0,0,0-75-75,7.5,7.5,0,0,1,0-15A90.09,90.09,0,0,1,278.23,186.93Z"/><path d="M271,222.47a89.85,89.85,0,0,1-11,18.77,7.5,7.5,0,1,1-11.95-9.06,75.31,75.31,0,0,0,9.14-15.65A7.5,7.5,0,1,1,271,222.47Z"/><path class="c" d="M226.64,417.11v2.37a21,21,0,0,1-.34,3.66L150,414.4v-6.07Z"/><polygon class="c" points="226.64 386.42 226.64 402.01 149.99 393.23 149.99 386.42 226.64 386.42"/><path class="c" d="M152.65,429.8l64.57,7.4a21.26,21.26,0,0,1-12,3.68H171.39A21.42,21.42,0,0,1,152.65,429.8Z"/><path class="a" d="M195.74,7.5v42a7.5,7.5,0,0,1-15,0V7.5a7.5,7.5,0,0,1,15,0Z"/><path d="M160.55,311.76a7.59,7.59,0,0,1-2.34.38,7.5,7.5,0,0,1-7.12-5.16,222.81,222.81,0,0,0-34.51-65.59,91.08,91.08,0,0,1-8.41-13.28,7.5,7.5,0,0,1,13.33-6.89,75.43,75.43,0,0,0,7,11.08,238,238,0,0,1,36.82,70A7.51,7.51,0,0,1,160.55,311.76Z"/><path class="a" d="M122.61,74.57a7.52,7.52,0,0,1-10.25-2.75l-21-36.36a7.5,7.5,0,0,1,13-7.5l21,36.36A7.51,7.51,0,0,1,122.61,74.57Z"/><path d="M107.76,206.74a8.41,8.41,0,0,1-1.11.08,7.49,7.49,0,0,1-7.41-6.39,91.27,91.27,0,0,1-1-14.34,7.5,7.5,0,0,1,15,.14,76.89,76.89,0,0,0,.82,12A7.5,7.5,0,0,1,107.76,206.74Z"/><path class="a" d="M74.56,122.61a7.5,7.5,0,0,1-10.24,2.75L28,104.37a7.5,7.5,0,1,1,7.5-13l36.36,21A7.5,7.5,0,0,1,74.56,122.61Z"/><path class="a" d="M71.82,264.12l-36.36,21a7.5,7.5,0,1,1-7.5-13l36.36-21a7.5,7.5,0,0,1,7.5,13Z"/><path class="a" d="M57,188.24a7.5,7.5,0,0,1-7.5,7.5H7.5a7.5,7.5,0,0,1,0-15h42A7.5,7.5,0,0,1,57,188.24Z"/></svg>