<svg xmlns="http://www.w3.org/2000/svg" viewBox="0 0 195 38.32"><defs><style>.a{fill:#86693c;}.b{fill:#fff;}</style></defs><path class="a" d="M78.41,16.43H62.89C60.57,7.07,50.46,0,38.37,0S16.18,7.07,13.85,16.43H1.67A1.54,1.54,0,0,0,0,17.8.83.83,0,0,0,0,18a1.39,1.39,0,0,0,1.22,1.53c6.67,1.37,12.09,6.59,12.09,9.27A1.53,1.53,0,0,0,15,30.12c1,0,1.66-.56,1.71-1.3.1-1.52.07-3.59,0-5.58,0-.94,0-1.87,0-2.7,0-.47.05-.92.09-1.37H60a12.28,12.28,0,0,1,.09,1.37v2.3c0,1.51,0,3.08,0,5.9a1.49,1.49,0,0,0,1.48,1.37h.18A1.63,1.63,0,0,0,63.36,29c1.45-5.62,7.92-9.86,15-9.86a1.55,1.55,0,0,0,1.67-1.37A1.54,1.54,0,0,0,78.41,16.43Zm-65,6.32a23.14,23.14,0,0,0-5-3.58h5.06c0,.45-.08.9-.08,1.37C13.35,21.23,13.36,22,13.37,22.75Zm3.92-6.32A17.89,17.89,0,0,1,25,6.54v9.89Zm19.41,0H28.36V4.76A25.34,25.34,0,0,1,36.7,2.81V16.43Zm11.68,0H40V2.81a25.34,25.34,0,0,1,8.34,1.95Zm3.34,0V6.54a17.86,17.86,0,0,1,7.73,9.89ZM63.4,22.61V20.54c0-.47,0-.92-.09-1.37h4.55A18,18,0,0,0,63.4,22.61Z"/><path class="b" d="M39.58,22.74H36.11c-1.1,0-1.59.49-1.59,1.73V34.65a.74.74,0,0,0,1.47,0V30.12h3.52c2.48,0,3.92-1.4,3.92-3.8S42,22.74,39.58,22.74Zm-.1,6H36V24.66c0-.35.16-.56.5-.56h3a2.11,2.11,0,0,1,2.42,2.25A2.18,2.18,0,0,1,39.48,28.77Z"/><path class="b" d="M53.52,22.64c-.44,0-.75.21-.75.66v4.86c0,2.31.16,4.64.25,5.64-.41-.9-1.28-2.62-2-3.82l-3.93-6.57a1.28,1.28,0,0,0-1.26-.77.9.9,0,0,0-1,1V34.68c0,.43.31.66.75.66a.65.65,0,0,0,.73-.66V29.75c0-2.36-.13-4.59-.22-5.62.36.8,1.14,2.38,1.76,3.41L52,34.42c.39.64.64.92,1.31.92s.93-.39.93-1v-11C54.25,22.85,54,22.64,53.52,22.64Z"/><path class="b" d="M33,22.67l-.28,0a.65.65,0,0,0-.67.46l-3,8.79c-.2.61-.39,1.33-.56,2-.17-.65-.34-1.38-.55-2l-3-8.81a.67.67,0,0,0-.67-.47.92.92,0,0,0-.28.05.72.72,0,0,0-.58.68.74.74,0,0,0,.05.25l4,11a1.13,1.13,0,0,0,2.11,0l4-11a.69.69,0,0,0,0-.24A.73.73,0,0,0,33,22.67Z"/><path class="b" d="M90.72,15.82a7.32,7.32,0,0,0,1.36-2.4,8.39,8.39,0,0,0,.49-2.86,7.31,7.31,0,0,0-.34-2.17,7.12,7.12,0,0,0-1-2,5.53,5.53,0,0,0-1.55-1.5,3.71,3.71,0,0,0-2-.59,5.16,5.16,0,0,0-1.54.31,7.62,7.62,0,0,0-1.76.88,6.31,6.31,0,0,0-1.45,1.31,2.47,2.47,0,0,0-.6,1.59,2,2,0,0,0,.26,1,.81.81,0,0,0,.69.43,1,1,0,0,0,.45-.12V26.54a2.58,2.58,0,0,0-.1.66,2.23,2.23,0,0,0,.26,1,1.06,1.06,0,0,0,.81.56,5.53,5.53,0,0,0,.69,0h.69A13.75,13.75,0,0,0,88,28.7a6,6,0,0,0,1.89-.6,4.27,4.27,0,0,0,1.33-1,7.06,7.06,0,0,0,1-1.58,8.67,8.67,0,0,0,.69-1.93,8.87,8.87,0,0,0,.25-2.13,8.34,8.34,0,0,0-.6-3.13A5.86,5.86,0,0,0,90.72,15.82Zm-5-7.8a3.4,3.4,0,0,1,1.78-.5,3,3,0,0,1,1,.19,2.7,2.7,0,0,1,1,.61,3.28,3.28,0,0,1,.7,1,3.72,3.72,0,0,1,.27,1.48,3.21,3.21,0,0,1-.36,1.56,4.21,4.21,0,0,1-.86,1.11,4.47,4.47,0,0,1-1,.7,2.94,2.94,0,0,1-.9.29l-.79-.05c-.26,0-.52,0-.79,0Zm4.69,16A4,4,0,0,1,89,25.16a5.83,5.83,0,0,1-1.76.44c-.61.06-1.08.08-1.43.08V17.89a6.33,6.33,0,0,0,.86-.06l.87-.14a6.48,6.48,0,0,1,1.41.41,3.65,3.65,0,0,1,1.26.92,2.76,2.76,0,0,1,.7,1.17,4.78,4.78,0,0,1,.23,1.48A3.72,3.72,0,0,1,90.46,24Z"/><path class="b" d="M103.16,11.65a3.7,3.7,0,0,0-.93-.59,2.1,2.1,0,0,0-.73-.19,2.7,2.7,0,0,0-1.68.66,9.59,9.59,0,0,0-1.6,1.68,3.31,3.31,0,0,0-.82-.86,1.6,1.6,0,0,0-.88-.39.86.86,0,0,0-.75.45,2,2,0,0,0-.27,1,2.39,2.39,0,0,0,.17.86,1.89,1.89,0,0,0,.55.74,1.11,1.11,0,0,1,.18.12v1.13c0,.05,0,.11,0,.17a1.41,1.41,0,0,0,0,.18,1.11,1.11,0,0,0,0,.17c0,.07,0,.13,0,.18V27.63a2.55,2.55,0,0,0,.37,1.27.84.84,0,0,0,.65.41.87.87,0,0,0,.69-.45,2.52,2.52,0,0,0,.34-1.35V17.14c.18-.28.4-.61.65-1a10.08,10.08,0,0,1,.79-1,6.79,6.79,0,0,1,.82-.8,1.27,1.27,0,0,1,.76-.33.72.72,0,0,1,.54.23,3.92,3.92,0,0,1,.45.53c.14.19.29.37.43.54a.62.62,0,0,0,.49.26.8.8,0,0,0,.67-.41,1.94,1.94,0,0,0,.28-1.08,3,3,0,0,0-.35-1.44A3.81,3.81,0,0,0,103.16,11.65Z"/><path class="b" d="M107.5,4.09a1,1,0,0,0-.85.6,2.89,2.89,0,0,0-.35,1.46,2.86,2.86,0,0,0,.35,1.43,1,1,0,0,0,.85.6,1,1,0,0,0,.86-.6,2.67,2.67,0,0,0,.37-1.43,2.71,2.71,0,0,0-.37-1.46A1,1,0,0,0,107.5,4.09Z"/><path class="b" d="M108.53,12.39a2.32,2.32,0,0,0-.42-1.09.77.77,0,0,0-.61-.35.76.76,0,0,0-.62.39,2.7,2.7,0,0,0-.4,1.17c0,2.44,0,4.93,0,7.48s0,5,0,7.49a2.5,2.5,0,0,0,.38,1.26.8.8,0,0,0,.65.41.84.84,0,0,0,.68-.45,2.39,2.39,0,0,0,.34-1.34c0-2.44,0-4.94,0-7.49S108.54,14.83,108.53,12.39Z"/><path class="b" d="M121.42,25.62a2,2,0,0,1-.12-.21V5a2.31,2.31,0,0,0-.45-1.09.77.77,0,0,0-.61-.33.84.84,0,0,0-.6.41,2.53,2.53,0,0,0-.39,1.13c0,.44,0,1.3,0,2.59s0,2.87,0,4.74a3.09,3.09,0,0,0-1.17-.31c-.4,0-.8,0-1.2,0a3.65,3.65,0,0,0-1.36.37,5.38,5.38,0,0,0-1.29.83,6.26,6.26,0,0,0-1.19,1.33,6.69,6.69,0,0,0-.86,1.83,20.44,20.44,0,0,0-.54,2.44,16.83,16.83,0,0,0,0,5.3,9.17,9.17,0,0,0,.69,2.36,4.74,4.74,0,0,0,1.55,2,3.31,3.31,0,0,0,1.94.64,4,4,0,0,0,2-.57,5.69,5.69,0,0,0,1.73-1.57,2.56,2.56,0,0,0,.16.4,2.67,2.67,0,0,0,.22.41c.27.42.54.63.81.65a.78.78,0,0,0,.68-.35,2.16,2.16,0,0,0,.32-1,2.55,2.55,0,0,0-.26-1.34A1.51,1.51,0,0,0,121.42,25.62Zm-2.09-3.13V23l-.15.35-.11.18-.19.29-.19.29a1.1,1.1,0,0,0-.11.22A3.8,3.8,0,0,1,117,25.72a3.63,3.63,0,0,1-1.84.16,3,3,0,0,0-.58-.39l-.5-.78c-.06-.21-.13-.42-.18-.63s-.13-.41-.19-.62c-.07-.81-.12-1.51-.15-2.11a9,9,0,0,1,.15-2.1,5.6,5.6,0,0,1,.79-2.18,4.22,4.22,0,0,1,1.28-1.31,3.25,3.25,0,0,1,1.55-.49,3.32,3.32,0,0,1,1.58.32l.14.15a1.83,1.83,0,0,0,.13.16l.15.12c0,1,0,2.13,0,3.29Z"/><path class="b" d="M133,12.68a.63.63,0,0,0-.57.2,1.59,1.59,0,0,0-.43.8,11.09,11.09,0,0,0-1.37-1.21,2.66,2.66,0,0,0-1.9-.55,3.65,3.65,0,0,0-1.83.8,6.5,6.5,0,0,0-1.52,1.85,9.87,9.87,0,0,0-1,2.57,15.57,15.57,0,0,0-.41,3.75,16,16,0,0,0,.45,3.74,9.45,9.45,0,0,0,1.31,3,3.82,3.82,0,0,0,2.18,1.64,2.9,2.9,0,0,0,1.2.13,5.7,5.7,0,0,0,1.2-.25l.82-.39a4.13,4.13,0,0,0,.8-.51v2.54c0,.36,0,.76,0,1.21a4,4,0,0,1-.2,1.13A3.09,3.09,0,0,1,131,34.3a2.83,2.83,0,0,1-.95.62,2.91,2.91,0,0,1-1,.2,3,3,0,0,1-1-.16l-.57-.23a3,3,0,0,1-.46-.3,3.91,3.91,0,0,1-.45-.39c-.15-.14-.33-.3-.55-.48a.78.78,0,0,0-.82,0,1.2,1.2,0,0,0-.52.64,2.32,2.32,0,0,0-.1,1,2.74,2.74,0,0,0,.39,1.1l1.28,1.07a4.12,4.12,0,0,0,1.35.72,4.26,4.26,0,0,0,2.3.15,2.83,2.83,0,0,0,1.1-.42,6.21,6.21,0,0,0,1-.82,5.86,5.86,0,0,0,1.55-2.67,14.05,14.05,0,0,0,.4-3.61V14.1a2.45,2.45,0,0,0-.38-1A1,1,0,0,0,133,12.68Zm-1.1,11.91a.29.29,0,0,0-.17.08c-1.44,1.79-3,2.06-4.55.82l-.28-.47c-.1-.16-.19-.31-.27-.47A13.7,13.7,0,0,1,126,20a8.37,8.37,0,0,1,1.37-4c.13-.11.27-.21.41-.31l.41-.32.6-.08.6-.07a4.26,4.26,0,0,1,1.34,1,10.74,10.74,0,0,1,1.14,1.4s0,0,0,0Z"/><path class="b" d="M145.94,24a.82.82,0,0,0-.9.08c-.49.44-1,.89-1.62,1.34a3.34,3.34,0,0,1-1.76.76,2.08,2.08,0,0,1-1.84-.68,5.17,5.17,0,0,1-1.11-2,.9.9,0,0,0,.58,0c.46-.21,1-.43,1.63-.66a13.23,13.23,0,0,0,1.88-.88,9.28,9.28,0,0,0,1.74-1.28,5.06,5.06,0,0,0,1.22-1.86,5.29,5.29,0,0,0,.35-2.08,7,7,0,0,0-.36-2.11,6.7,6.7,0,0,0-.89-1.75,2.5,2.5,0,0,0-1.22-1,3.59,3.59,0,0,0-2.73.13,8,8,0,0,0-2.5,1.82,7,7,0,0,0-1.61,3.09,14.86,14.86,0,0,0-.49,4,15.59,15.59,0,0,0,.57,4,7.4,7.4,0,0,0,1.61,3.06,3.88,3.88,0,0,0,1.82,1.19,3.82,3.82,0,0,0,1.93,0,6,6,0,0,0,1.92-.85,15.26,15.26,0,0,0,1.78-1.37,1.91,1.91,0,0,0,.59-1.05,2.35,2.35,0,0,0-.06-1.13A1.23,1.23,0,0,0,145.94,24Zm-7.6-3.32a8.81,8.81,0,0,1,.45-2.82,4.36,4.36,0,0,1,1.37-2.09,7,7,0,0,1,1.1-.64,3,3,0,0,1,1.3-.33,1.44,1.44,0,0,1,1.08.46A2.46,2.46,0,0,1,144,17a2,2,0,0,1-.6.92,6.06,6.06,0,0,1-1,.72c-.37.2-.72.39-1.07.54s-.61.27-.81.35l-.94.41c-.31.15-.61.28-.91.41A1.53,1.53,0,0,0,138.34,20.65Z"/><path class="b" d="M166.57,4.83c-.39,0-.71.34-1,1-.76,2.08-1.45,4.21-2.05,6.39s-1.19,4.38-1.77,6.59c-.2.76-.41,1.52-.62,2.28s-.4,1.53-.58,2.28Q160,21,159.52,19c-.34-1.37-.67-2.74-1-4.14s-.68-2.82-1-4.3-.74-3.09-1.17-4.84c-.27-.59-.6-.89-1-.89a.81.81,0,0,0-.66.44,2.39,2.39,0,0,0-.29,1.27,1.21,1.21,0,0,0,0,.18,1,1,0,0,1,0,.17q1.31,5.34,2.59,10.64t2.62,10.65a2.17,2.17,0,0,0,.43.82.78.78,0,0,0,.54.27.82.82,0,0,0,.58-.31,2.23,2.23,0,0,0,.42-.94q1.28-5.22,2.67-10.56t3.16-10.22a3.74,3.74,0,0,0,.12-.85,1.91,1.91,0,0,0-.3-1.13A.82.82,0,0,0,166.57,4.83Z"/><path class="b" d="M180.1,8.24a9.23,9.23,0,0,0-.93-1.89A5.85,5.85,0,0,0,178,4.94a3.94,3.94,0,0,0-1.29-.76A4.49,4.49,0,0,0,175.3,4a5.44,5.44,0,0,0-2.1.43,10,10,0,0,0-2,1.09.52.52,0,0,0-.31-.08.79.79,0,0,0-.62.37,2.68,2.68,0,0,0-.4,1.15V17.38a1.19,1.19,0,0,0-.65.56,1.9,1.9,0,0,0-.23.92,2.21,2.21,0,0,0,.18.86,2,2,0,0,0,.55.74.32.32,0,0,0,.17.08v7.6a2.5,2.5,0,0,0,.38,1.26.82.82,0,0,0,.65.41.88.88,0,0,0,.69-.44A2.52,2.52,0,0,0,172,28c0-1,0-2.1,0-3.35V21.32c.37.07.73.14,1.1.19a8.35,8.35,0,0,0,1.13.08l.58,0a6.2,6.2,0,0,0,.62-.06,4.68,4.68,0,0,0,2.75-1.38,9.51,9.51,0,0,0,2-3.18,10.9,10.9,0,0,0,.78-4.17,13.22,13.22,0,0,0-.21-2.34A14.44,14.44,0,0,0,180.1,8.24Zm-1.55,6.41a7.18,7.18,0,0,1-.75,1.87,3.35,3.35,0,0,1-1.27,1.27,6.83,6.83,0,0,1-1.43.56,4.7,4.7,0,0,1-1,.12,5.49,5.49,0,0,1-1.08-.1,5.87,5.87,0,0,1-1.05-.29V8.49a9,9,0,0,1,1.6-1,4,4,0,0,1,1.75-.41,2.66,2.66,0,0,1,1.7.62,4.87,4.87,0,0,1,1.37,2.09,8.49,8.49,0,0,1,.46,2.78A8.74,8.74,0,0,1,178.55,14.65Z"/><path class="b" d="M195,5.65a2.37,2.37,0,0,0-.41-1.1A.82.82,0,0,0,194,4.2a.78.78,0,0,0-.63.39,2.84,2.84,0,0,0-.4,1.17c0,2.89,0,5.64,0,8.27s-.07,5.36-.13,8.22q-1-2.34-1.95-4.5t-2.07-4.23q-1.06-2.07-2.16-4.11c-.73-1.37-1.48-2.76-2.25-4.19a1.09,1.09,0,0,0-.75-.43.78.78,0,0,0-.63.39,2.45,2.45,0,0,0-.37,1.09q0,5.27,0,10.66t0,10.66a2.55,2.55,0,0,0,.38,1.27.84.84,0,0,0,.65.41.87.87,0,0,0,.69-.45,2.51,2.51,0,0,0,.33-1.34c0-1.67,0-3.21,0-4.64s0-2.8,0-4.12V10.83Q185.75,13,186.79,15c.69,1.37,1.37,2.74,2,4.13s1.31,2.81,1.95,4.25,1.25,3,1.85,4.54V28h0l.1.24a2,2,0,0,1,.1.27c.27.41.55.62.85.62a.72.72,0,0,0,.56-.31,2.23,2.23,0,0,0,.42-.94v-.29a2.06,2.06,0,0,1,0-.33h0l0,0q.21-5.56.25-10.8C195,13,195,9.36,195,5.65Z"/></svg>