<svg xmlns="http://www.w3.org/2000/svg" viewBox="0 0 256 256"><defs><style>.a{fill:#323e51;}.b{fill:#86693c;}.c{fill:#fff;}</style></defs><rect class="a" width="256" height="256" rx="24.74"/><path class="b" d="M247.43,122.36h-48.3c-7.24-42.54-38.69-74.65-76.32-74.65S53.73,79.82,46.49,122.36H8.58c-2.87,0-5.19,2.79-5.19,6.23a5.54,5.54,0,0,0,.12.71c-.36,3.11,1.2,6.13,3.79,6.91,20.77,6.26,37.63,30,37.63,42.15,0,3.37,2.24,6.13,5,6.22,3-.11,5.18-2.54,5.32-5.9.31-6.92.21-16.31.1-25.34,0-4.3-.09-8.5-.09-12.31,0-2.1.14-4.16.26-6.22H190c.14,2.06.26,4.12.26,6.22l0,10.48c0,6.85.06,14,0,26.81,0,3.19,2,5.89,4.64,6.22a3.52,3.52,0,0,0,.56,0c2.43,0,4.56-2,5.07-4.93,4.52-25.57,24.66-44.84,46.85-44.84,2.87,0,5.19-2.79,5.19-6.22S250.3,122.36,247.43,122.36ZM45,151.11a80,80,0,0,0-15.55-16.3H45.2c-.12,2.06-.26,4.12-.26,6.22C44.93,144.18,45,147.6,45,151.11Zm12.2-28.75c3.58-18.09,12.23-33.82,24.07-44.95v45Zm60.43,0h-26v-53a58.87,58.87,0,0,1,26-8.89v61.89Zm36.35,0H128V60.46a59.1,59.1,0,0,1,26,8.88Zm10.38,0V77.41c11.84,11.12,20.49,26.86,24.07,45Zm36.37,28.09,0-9.42c0-2.1-.15-4.16-.26-6.22h14.14A66.07,66.07,0,0,0,200.72,150.45Z"/><path class="c" d="M126.57,151H115.79c-3.45,0-5,2.27-5,7.88v46.26c0,2.11.92,3.13,2.28,3.13s2.28-1,2.28-3.06V184.59h11c7.72,0,12.19-6.35,12.19-17.3C138.56,156.93,134.24,151,126.57,151Zm-.29,27.44H115.4V159.78c0-1.61.49-2.55,1.55-2.55h9.33c4.85,0,7.52,3.64,7.52,10.21C133.8,174.52,131.18,178.46,126.28,178.46Z"/><path class="c" d="M170,150.59c-1.36,0-2.33.95-2.33,3v22.1c0,10.51.48,21.09.77,25.61-1.26-4.08-4-11.89-6.21-17.36L150,154.09c-.92-2.19-1.75-3.5-3.94-3.5-1.89,0-3.06,1.67-3.06,4.37V205.3c0,2,1,3,2.34,3s2.28-1,2.28-3V182.91c0-10.73-.39-20.87-.68-25.54,1.12,3.65,3.54,10.8,5.48,15.47l12.87,31.3c1.21,2.92,2,4.15,4.07,4.15s2.92-1.75,2.92-4.59V153.58C172.24,151.54,171.32,150.59,170,150.59Z"/><path class="c" d="M106,150.73a3.93,3.93,0,0,0-.88-.14c-1,0-1.75.65-2.08,2.11l-9.42,39.91c-.64,2.77-1.22,6-1.75,9-.53-2.92-1.07-6.28-1.7-9l-9.47-40.05c-.34-1.46-1.16-2.12-2.08-2.12a2,2,0,0,0-.88.22,3.19,3.19,0,0,0-1.79,3.07,5.11,5.11,0,0,0,.14,1.16l12.48,50c.63,2.55,1.79,3.35,3.3,3.35s2.62-.8,3.25-3.28l12.52-50.19a4.16,4.16,0,0,0,.15-1.1A3.14,3.14,0,0,0,106,150.73Z"/></svg>